<svg xmlns="http://www.w3.org/2000/svg" width="320" height="320" font-family="sans-serif" font-size="11">
<rect width="320" height="320" fill="white"/>
<line x1="40" y1="280" x2="280" y2="40" stroke="#bbb" stroke-dasharray="4 3"/>
<rect x="40" y="40" width="240" height="240" fill="none" stroke="#333"/>
<polyline points="85.7,235.4 105.0,222.5 121.8,195.2 144.7,164.7 167.7,135.1 192.8,105.1 213.9,80.0" fill="none" stroke="#2b6cb0" stroke-width="1.5"/>
<circle cx="85.7" cy="235.4" r="5.5" fill="#2b6cb0" opacity="0.8"/><circle cx="105.0" cy="222.5" r="10.0" fill="#2b6cb0" opacity="0.8"/><circle cx="121.8" cy="195.2" r="10.0" fill="#2b6cb0" opacity="0.8"/><circle cx="144.7" cy="164.7" r="10.0" fill="#2b6cb0" opacity="0.8"/><circle cx="167.7" cy="135.1" r="9.9" fill="#2b6cb0" opacity="0.8"/><circle cx="192.8" cy="105.1" r="4.6" fill="#2b6cb0" opacity="0.8"/><circle cx="213.9" cy="80.0" r="2.8" fill="#2b6cb0" opacity="0.8"/>
<text x="160" y="312" text-anchor="middle">predicted recall</text>
<text x="12" y="160" text-anchor="middle" transform="rotate(-90 12 160)">empirical recall</text>
<text x="40" y="294">0</text>
<text x="274" y="294">1</text>
<text x="24" y="44">1</text>
<text x="160" y="26" text-anchor="middle" font-weight="bold">Memory calibration (held-out)</text>
</svg>